<svg xmlns="http://www.w3.org/2000/svg" viewBox="0 0 220 220"><defs><style>.cls-1{isolation:isolate;}.cls-2{fill:#fb8c00;}.cls-3{fill:#ffa726;}.cls-4{fill:#ffcc80;}.cls-5{fill:#00897b;}.cls-6{opacity:0.15;}.cls-6,.cls-9{mix-blend-mode:multiply;}.cls-7{fill:#26a69a;}.cls-8{fill:none;stroke:#3949ab;stroke-linecap:round;stroke-miterlimit:10;stroke-width:6px;}.cls-9{opacity:0.2;}.cls-10{fill:#00bfa5;}.cls-11{fill:#e0f2f1;}.cls-12{fill:#b2dfdb;}</style></defs><title>All_illustrations_v2</title><g class="cls-1"><g id="Onboarding_illustrations" data-name="Onboarding illustrations"><path class="cls-2" d="M188.69,41.88c0-10-6-18.14-13.26-18.14s-13.26,8.16-13.26,18.14Z"/><path class="cls-3" d="M176,23.73l-31.42-.06H70.3C59.92,23.66,49,30.05,49,40V161.24c0,10,10.9,20.42,21.27,20.42h74.24c10.37,0,17.83-10.4,17.83-20.37,0,0,.2-120.62.2-120.78.24-9.08,4.71-15.76,13.54-16.65Z"/><path class="cls-2" d="M50.18,181.5c-10.37,0-18.86-8.16-18.86-18.14h94.31c0,10,8.49,18.14,18.86,18.14Z"/><rect class="cls-4" x="61.08" y="64.33" width="91.15" height="5.32"/><rect class="cls-4" x="61.08" y="75.6" width="81.33" height="5.32"/><rect class="cls-4" x="61.08" y="53.05" width="65.93" height="5.32"/><rect class="cls-4" x="61.08" y="86.82" width="72.37" height="5.32"/><rect class="cls-4" x="61.08" y="109.36" width="81.33" height="5.32"/><rect class="cls-4" x="61.08" y="129.4" width="81.33" height="5.32"/><rect class="cls-4" x="61.08" y="98.09" width="84.42" height="5.32"/><polygon class="cls-5" points="178.19 192.43 163.54 184.63 157.04 199.9 139.27 149.54 160.42 142.08 178.19 192.43"/><g class="cls-6"><polygon points="143.87 203.37 136.4 188.55 122.28 197.28 136.78 145.89 158.37 151.98 143.87 203.37"/></g><polygon class="cls-7" points="142.87 202.37 135.4 187.55 121.28 196.28 135.78 144.89 157.37 150.98 142.87 202.37"/><line class="cls-8" x1="144.19" y1="110.28" x2="140.91" y2="115.45"/><g class="cls-9"><polygon points="151.23 102.4 156.22 106.27 162.15 104.13 165.7 109.35 172 109.15 173.76 115.21 179.82 116.97 179.63 123.28 184.84 126.82 182.71 132.76 186.57 137.74 182.71 142.73 184.84 148.66 179.63 152.21 179.82 158.52 173.76 160.28 172 166.34 165.7 166.14 162.15 171.36 156.22 169.22 151.23 173.09 146.24 169.22 140.31 171.36 136.76 166.14 130.46 166.34 128.69 160.28 122.64 158.52 122.83 152.21 117.62 148.66 119.75 142.73 115.89 137.74 119.75 132.76 117.62 126.82 122.83 123.28 122.64 116.97 128.69 115.21 130.46 109.15 136.76 109.35 140.31 104.13 146.24 106.27 151.23 102.4"/><path d="M152.23,163.5A24.75,24.75,0,1,1,177,138.74,24.78,24.78,0,0,1,152.23,163.5Z"/><path d="M152.23,115.49A23.25,23.25,0,1,1,129,138.74a23.28,23.28,0,0,1,23.25-23.25m0-3a26.25,26.25,0,1,0,26.25,26.25,26.25,26.25,0,0,0-26.25-26.25Z"/><path d="M151.23,162.5A24.75,24.75,0,1,1,176,137.74,24.78,24.78,0,0,1,151.23,162.5Z"/><path d="M151.23,114.49A23.25,23.25,0,1,1,128,137.74a23.28,23.28,0,0,1,23.25-23.25m0-3a26.25,26.25,0,1,0,26.25,26.25,26.25,26.25,0,0,0-26.25-26.25Z"/><polygon points="147.21 148.16 138.09 139.04 141.76 135.38 147.21 140.79 160.69 127.33 164.36 131 147.21 148.16"/></g><polygon class="cls-10" points="150.23 101.4 155.22 105.27 161.15 103.13 164.7 108.35 171 108.15 172.76 114.21 178.82 115.97 178.63 122.28 183.84 125.82 181.71 131.76 185.57 136.74 181.71 141.73 183.84 147.66 178.63 151.21 178.82 157.52 172.76 159.28 171 165.34 164.7 165.14 161.15 170.36 155.22 168.22 150.23 172.09 145.24 168.22 139.31 170.36 135.76 165.14 129.46 165.34 127.69 159.28 121.64 157.52 121.83 151.21 116.62 147.66 118.75 141.73 114.89 136.74 118.75 131.76 116.62 125.82 121.83 122.28 121.64 115.97 127.69 114.21 129.46 108.15 135.76 108.35 139.31 103.13 145.24 105.27 150.23 101.4"/><g class="cls-6"><path d="M151.23,162.5A24.75,24.75,0,1,1,176,137.74,24.78,24.78,0,0,1,151.23,162.5Z"/><path d="M151.23,114.49A23.25,23.25,0,1,1,128,137.74a23.28,23.28,0,0,1,23.25-23.25m0-3a26.25,26.25,0,1,0,26.25,26.25,26.25,26.25,0,0,0-26.25-26.25Z"/></g><path class="cls-11" d="M150.23,161.5A24.75,24.75,0,1,1,175,136.74,24.78,24.78,0,0,1,150.23,161.5Z"/><path class="cls-12" d="M150.23,113.49A23.25,23.25,0,1,1,127,136.74a23.28,23.28,0,0,1,23.25-23.25m0-3a26.25,26.25,0,1,0,26.25,26.25,26.25,26.25,0,0,0-26.25-26.25Z"/><polygon class="cls-10" points="146.21 147.16 137.09 138.04 140.76 134.38 146.21 139.79 159.69 126.33 163.36 130 146.21 147.16"/></g></g></svg>